<svg width="35" height="35" viewBox="0 0 35 35" fill="none" xmlns="http://www.w3.org/2000/svg">
<circle cx="17.585" cy="17.585" r="14.585" fill="url(#paint0_linear_2_1032)"/>
<path d="M22.9164 29.5421C27.4628 27.4797 30.625 22.9008 30.625 17.5833C30.625 10.3346 24.7487 4.45831 17.5 4.45831C10.2513 4.45831 4.375 10.3346 4.375 17.5833C4.375 22.7596 7.37146 27.236 11.7244 29.3725C11.8725 26.4327 11.9922 23.7869 11.9741 23.7689C11.8431 23.257 11.8121 23.2181 10.8461 22.3537C8.7808 20.5054 8.04267 19.0265 7.95178 16.5549C7.85945 14.0445 8.5833 12.0272 10.133 10.4764C10.8856 9.72324 11.5836 9.28633 12.3561 9.08473C12.7848 8.97286 13.0548 8.99718 13.6561 9.20178C14.3436 9.43573 14.4989 9.53779 15.3081 10.2874C16.3653 11.2665 16.7863 11.9084 17.2695 13.2775C18.0326 15.4394 17.8821 18.0301 16.8792 19.9966C16.6491 20.4478 16.3136 20.8399 15.1696 21.9948C13.9752 23.2004 13.7353 23.4841 13.6783 23.7577C13.6531 23.7829 13.807 26.8423 13.9929 30.2345C15.1092 30.5433 16.2854 30.7083 17.5 30.7083C18.5745 30.7083 19.6189 30.5792 20.6184 30.3356C20.7997 27.5895 20.9475 25.3092 20.9188 25.2959C21.0193 23.8316 20.8952 23.4432 20.1926 23.0229C19.0346 22.3305 18.4917 21.4255 18.449 20.117C18.4289 19.4995 19.8903 9.83909 20.0424 9.49745C20.0764 9.42087 20.1896 9.3667 20.2937 9.37703C20.4392 9.39149 20.4299 10.4914 20.2534 14.126C20.1537 16.1766 20.0561 17.5347 20.0074 18.2118C19.9943 18.3937 19.9848 18.5265 19.9797 18.6104L19.9358 19.3304L20.5849 19.3332L20.7995 14.8426C20.9987 9.78104 21.0332 9.38623 21.2782 9.38636C21.523 9.38649 21.5424 9.78063 21.5461 14.8342C21.5493 19.3413 21.5739 19.3408 21.7505 19.3377C21.7629 19.3374 21.7761 19.3372 21.79 19.3385C21.8045 19.3399 21.8181 19.3428 21.8309 19.3455C22.0069 19.3832 22.0297 19.3881 22.0279 14.8428C22.026 10.0963 22.0565 9.36173 22.2538 9.38019C22.4495 9.39848 22.4969 9.77991 22.5878 12.0705C22.887 19.6065 22.8939 19.6001 23.0979 19.4109C23.1362 19.3755 23.1814 19.3336 23.2367 19.3338C23.5509 19.3351 23.5524 19.3336 23.5453 19.0252C23.5442 18.977 23.5339 18.8232 23.5165 18.5632C23.4723 17.9033 23.3823 16.5601 23.2808 14.5274C23.0914 10.732 23.0706 9.37376 23.2028 9.37383C23.3015 9.37388 23.4128 9.40452 23.4501 9.44188C23.6008 9.59259 25.103 19.8687 25.0475 20.4307C24.9362 21.5589 24.4242 22.3207 23.2803 23.0601C22.8819 23.3177 22.7677 23.4465 22.6539 23.7662C22.6359 23.7842 22.757 26.4253 22.9164 29.5421Z" fill="white"/>
<defs>
<linearGradient id="paint0_linear_2_1032" x1="2.99889" y1="17.5852" x2="32.1705" y2="17.5852" gradientUnits="userSpaceOnUse">
<stop stop-color="#FFBE00"/>
<stop offset="1" stop-color="#FF1F6C"/>
</linearGradient>
</defs>
</svg>
