<svg width="8" height="15" viewBox="0 0 8 15" fill="none" xmlns="http://www.w3.org/2000/svg">
<path fill-rule="evenodd" clip-rule="evenodd" d="M2.69368 1.60079C2.69368 2.19368 3.04941 2.78656 3.583 3.02372C4.53162 3.49802 5.89526 2.96443 5.89526 1.5415C5.89526 0.711462 5.18379 0 4.35375 0C3.82016 0 3.52372 0.118577 3.1087 0.474308C2.87154 0.770751 2.69368 1.18577 2.69368 1.60079ZM0.5 8.41897C0.5 8.59684 0.559289 8.71542 0.737154 8.83399C0.796443 8.89328 1.09289 9.01186 1.15217 9.01186C1.56719 9.07115 1.68577 8.83399 1.80435 8.53755L2.5751 6.99605C2.63439 6.93676 2.63439 6.99605 2.63439 6.93676V8.53755C2.63439 8.83399 2.39723 9.48617 2.27866 9.78261C2.21937 10.0791 2.16008 10.3755 2.0415 10.6126C1.86364 11.2055 1.68577 11.6798 1.50791 12.2727C1.44862 12.3913 1.44862 12.5099 1.38933 12.6877C1.27075 13.0435 1.0336 13.6364 1.0336 13.9921C1.0336 14.585 1.86364 14.9407 2.39723 14.585C2.63439 14.4071 2.69368 14.2292 2.81225 13.8735L4.17589 9.60474C4.23518 9.8419 4.59091 10.5534 4.70949 10.8498C4.94664 11.5613 5.06522 12.332 5.12451 13.1028C5.12451 13.4585 5.24308 14.4071 5.36166 14.6443C5.48024 14.8814 5.6581 15 5.89526 15H6.01383C6.48814 15 6.90316 14.6443 6.90316 14.17L6.7253 12.5099C6.60672 11.502 6.54743 10.7312 6.1917 9.78261L5.71739 8.83399C5.59881 8.59684 5.6581 8.3004 5.6581 7.94466C6.31028 8.41897 6.60672 9.48617 7.31818 8.7747C7.55534 8.53755 7.67391 8.3004 7.43676 8.00395L6.78458 7.29249C6.60672 7.05534 5.89526 6.34387 5.77668 6.10672C5.71739 5.86957 5.71739 5.57312 5.71739 5.27668L5.6581 4.03162C5.6581 3.79447 5.42095 3.6166 5.18379 3.6166H3.16798C2.5751 3.6166 2.39723 4.26877 2.10079 4.86166L0.618577 8.06324C0.559289 8.12253 0.5 8.24111 0.5 8.41897Z" fill="#E95A8B"/>
</svg>
